<?xml version="1.0" encoding="utf-8"?>
<!-- Svg Vector Icons : http://www.onlinewebfonts.com/icon -->
<!DOCTYPE svg PUBLIC "-//W3C//DTD SVG 1.1//EN" "http://www.w3.org/Graphics/SVG/1.1/DTD/svg11.dtd">
<svg version="1.1" xmlns="http://www.w3.org/2000/svg" xmlns:xlink="http://www.w3.org/1999/xlink" x="0px" y="0px" viewBox="0 0 1000 1000" enable-background="new 0 0 1000 1000" xml:space="preserve">
<metadata> Svg Vector Icons : http://www.onlinewebfonts.com/icon </metadata>
<g><g transform="translate(0.000000,512.000000) scale(0.100000,-0.100000)"><path d="M4875.3,4985.7C4620.3,4863,2549,3718,2506.9,3675.8l-47.9-46l-5.8-1194.8c-3.8-655.9,0-1229.3,5.8-1275.3c11.5-80.6,15.3-84.4,1223.6-1072.1C4349.9-457,4917.5-911.6,4948.2-923.1c36.5-13.4,67.1-13.4,105.5,0c71,26.8,2399.2,1929.3,2454.8,2006l42.2,61.4l-3.8,1244.7l-5.8,1244.7l-57.5,49.9c-76.7,69-2381.9,1323.3-2454.8,1336.7C4990.4,5027.9,4940.5,5016.4,4875.3,4985.7z M5980,4076.7c537-293.4,976.2-537,976.2-542.7c0-19.2-1927.4-1235.1-1956.2-1235.1S3043.8,3514.7,3043.8,3533.9c0,7.7,1935.1,1072.1,1952.3,1074C5000,4607.9,5443,4368.2,5980,4076.7z M3864.7,2538.6l943.6-600.3V806.8V-322.8l-109.3,86.3c-61.4,47.9-504.4,410.4-983.8,803.5l-872.6,715.3l-5.8,955.1l-3.8,955.1l42.2-26.9C2900,3150.4,3344.9,2868.4,3864.7,2538.6z M7159.4,1297.7c-3.8-11.5-433.4-370.1-955.1-794C5684.7,78,5243.6-282.5,5226.3-297.9c-32.6-26.9-34.5,26.9-34.5,1102.7v1133.4l983.8,625.2l981.9,625.2l5.7-935.9C7165.2,1738.8,7163.3,1309.3,7159.4,1297.7z"/><path d="M633.1,3246.2c-197.5-42.2-389.3-197.5-477.5-389.3L100,2738V1002.4c0-1605.2,1.9-1747.1,34.5-1898.6c53.7-245.5,138.1-404.6,341.4-634.8c235.9-266.6,594.5-696.2,1242.7-1494l538.9-661.7v-483.3v-485.2l55.6-61.4c74.8-84.4,187.9-88.2,266.6-9.6l51.8,51.8l5.7,548.5c3.8,429.6,0,558.1-21.1,598.4c-34.5,72.9-1307.9,1637.8-1660.8,2044.4c-308.8,354.8-333.7,385.5-377.8,481.4c-90.1,195.6-94,274.2-94,2013.7c0,1609,0,1630.1,40.3,1697.3c120.8,205.2,408.5,205.2,510.1,0c32.6-61.4,34.5-157.3,34.5-1137.3V501.9l-74.8-90.1c-40.3-49.9-86.3-115.1-101.7-147.7C805.8,85.7,800-142.5,876.7-349.6c40.3-109.3,90.1-163,899.4-972.3c609.9-611.8,870.7-861.1,911-870.7c88.2-21.1,188,40.3,218.6,134.2c13.4,40.3,19.2,92.1,11.5,115.1c-5.8,23-381.6,412.3-832.3,864.9c-450.7,454.5-830.4,845.8-843.8,872.6c-38.4,71-30.7,235.9,13.4,308.8c19.2,36.4,72.9,90.1,115.1,120.8c65.2,44.1,99.7,55.6,182.2,55.6c57.5,0,124.7-11.5,149.6-24.9c65.2-32.6,1762.5-1724.1,1887.1-1879.5c218.6-274.2,327.9-521.6,397-901.4c13.4-78.6,26.8-498.6,34.5-1135.3l11.5-1012.6l51.8-51.8c80.5-78.6,191.8-74.8,268.5,11.5l55.6,63.3l-5.8,1056.7c-7.7,999.2-9.6,1068.2-49.9,1240.8c-80.6,364.4-205.2,644.4-391.2,895.6C3834-1289.4,2063.8,488.4,1950.7,561.3c-107.4,67.1-266.6,115.1-387.4,115.1h-92.1v945.5c0,517.8-7.7,993.4-19.2,1056.7c-51.8,320.3-304.9,552.3-631,577.3C761.6,3259.7,677.3,3255.8,633.1,3246.2z"/><path d="M9050.4,3236.7c-143.8-40.3-209-78.6-308.8-180.3c-103.6-101.7-166.8-220.5-193.7-364.4c-11.5-61.4-19.2-492.9-19.2-1058.6v-957h-92.1c-120.8,0-280-47.9-387.4-115.1C7936.2,488.4,6166-1289.4,6039.5-1458.1c-186-251.2-310.7-531.2-391.2-895.6c-40.3-172.6-42.2-241.6-49.9-1240.8l-5.7-1056.7l55.6-63.3c76.7-86.3,187.9-90.1,268.5-11.5l51.8,51.8l11.5,1012.6c7.7,636.7,21.1,1056.7,34.5,1135.3c69,379.7,178.3,627.1,397,901.4c124.6,155.4,1821.9,1846.8,1887.1,1879.5c24.9,13.4,92.1,24.9,149.6,24.9c187.9,0,335.6-147.7,335.6-339.4c0-55.6-11.5-120.8-24.9-145.8c-13.4-26.8-393.2-418.1-843.8-872.6c-886-889.9-878.3-882.2-811.2-1012.6c34.5-69,138.1-118.9,209-101.6c38.4,9.6,316.4,274.2,911,870.7c809.3,809.3,859.2,863,899.5,972.3c76.7,207.1,71,435.3-15.3,613.7c-15.3,32.6-61.4,97.8-101.6,147.7l-74.8,90.1V1572c0,980,1.9,1075.9,34.5,1137.3c101.6,205.2,389.3,205.2,510.1,0c40.3-67.1,40.3-88.2,40.3-1697.3c0-1739.4-3.8-1818.1-94-2013.7c-44.1-95.9-69-126.6-377.8-481.4c-364.4-421.9-1614.8-1960-1657-2040.6c-26.9-49.9-28.8-134.2-24.9-604.1l5.8-546.6l51.8-51.8c78.6-78.6,191.8-74.8,266.6,9.6l55.6,61.4v485.2v483.3l538.9,661.7c648.2,797.8,1006.8,1227.4,1242.8,1494c203.3,230.1,287.7,389.3,341.4,634.8c32.6,151.5,34.5,293.4,34.5,1898.6V2738l-55.6,118.9C9708.2,3154.2,9357.3,3323,9050.4,3236.7z"/></g></g>
</svg>