<?xml version="1.0" encoding="utf-8"?>
<!-- Generator: Adobe Illustrator 16.0.0, SVG Export Plug-In . SVG Version: 6.00 Build 0)  -->
<!DOCTYPE svg PUBLIC "-//W3C//DTD SVG 1.1//EN" "http://www.w3.org/Graphics/SVG/1.1/DTD/svg11.dtd">
<svg version="1.1" id="Layer_1" xmlns="http://www.w3.org/2000/svg" xmlns:xlink="http://www.w3.org/1999/xlink" x="0px" y="0px"
	 width="612px" height="792px" viewBox="0 0 612 792" enable-background="new 0 0 612 792" xml:space="preserve">
<g>
	<g transform="translate(0.000000,512.000000) scale(0.100000,-0.100000)">
		<path d="M387.456,3073.232c-120.869-25.825-238.252-120.869-292.227-238.252l-34.028-72.764V1700.029
			c0-982.383,1.162-1069.228,21.113-1161.943c32.866-150.244,84.517-247.617,208.936-388.496
			c144.37-163.164,363.833-426.074,760.532-914.326l329.81-404.961v-295.781v-296.943l34.023-37.578
			c45.781-51.65,114.995-53.974,163.159-5.879l31.704,31.709l3.486,335.684c2.329,262.91,0,341.553-12.91,366.221
			C1579.941-1027.656,800.62-69.941,584.643,178.906C395.659,396.035,380.42,414.824,353.428,473.516
			c-55.137,119.707-57.524,167.812-57.524,1232.387c0,984.707,0,997.622,24.663,1038.75c73.931,125.581,250,125.581,312.183,0
			c19.951-37.578,21.113-96.27,21.113-696.03v-654.902l-45.781-55.137c-24.663-30.542-52.812-70.444-62.236-90.396
			c-52.695-109.185-56.245-248.843-9.307-375.581c24.668-66.895,55.142-99.756,550.435-595.049
			c373.262-374.424,532.871-526.992,557.534-532.871c53.975-12.91,115.054,24.668,133.784,82.129
			c8.198,24.668,11.748,56.367,7.036,70.439c-3.55,14.082-233.54,252.334-509.37,529.326
			c-275.825,278.154-508.203,517.627-516.401,534.023c-23.501,43.457-18.789,144.375,8.198,188.994
			c11.753,22.275,44.614,55.137,70.439,73.926c39.902,26.987,61.021,34.028,111.509,34.028c35.19,0,76.313-7.041,91.553-15.239
			c39.902-19.951,1078.652-1055.146,1154.907-1150.254c133.784-167.812,200.674-319.219,242.964-551.66
			c8.203-48.096,16.401-305.137,21.113-694.805l7.041-619.707l31.699-31.699c49.268-48.105,117.383-45.781,164.321,7.031
			l34.028,38.74l-3.55,646.699c-4.712,611.514-5.874,653.74-30.537,759.375c-49.331,223.008-125.586,394.375-239.414,548.105
			c-77.422,103.311-1160.781,1191.318-1230,1235.937c-65.728,41.064-163.159,70.439-237.09,70.439h-56.362v578.647
			c0,316.89-4.712,607.959-11.753,646.699c-31.699,196.021-186.597,338.008-386.172,353.306
			C466.099,3081.494,414.507,3079.111,387.456,3073.232z"/>
		<path d="M5538.847,3067.422c-88.008-24.663-127.91-48.105-188.984-110.347c-63.408-62.241-102.09-134.946-118.545-223.013
			c-7.041-37.573-11.758-301.65-11.758-647.861v-585.684h-56.357c-73.936,0-171.367-29.316-237.09-70.439
			c-69.16-44.619-1152.519-1132.627-1229.941-1235.879c-113.828-153.73-190.146-325.088-239.414-548.105
			c-24.658-105.625-25.82-147.861-30.537-759.365l-3.486-646.699l34.023-38.74c46.943-52.822,115-55.146,164.326-7.041
			l31.699,31.699l7.041,619.717c4.707,389.658,12.91,646.699,21.113,694.805c42.227,232.373,109.121,383.779,242.959,551.65
			c76.26,95.107,1115.01,1130.244,1154.912,1150.254c15.234,8.203,56.357,15.239,91.553,15.239
			c114.99,0,205.381-90.391,205.381-207.71c0-34.023-7.031-73.926-15.234-89.228c-8.203-16.406-240.645-255.879-516.406-534.033
			c-542.236-544.619-537.52-539.902-496.455-619.707c21.113-42.236,84.521-72.773,127.91-62.188
			c23.496,5.879,193.633,167.812,557.529,532.871c495.293,495.293,525.83,528.154,550.498,595.049
			c46.934,126.748,43.447,266.406-9.365,375.586c-9.365,19.951-37.578,59.854-62.178,90.391l-45.781,55.142v654.839
			c0,599.761,1.162,658.452,21.113,696.03c62.178,125.581,238.252,125.581,312.178,0c24.668-41.069,24.668-53.979,24.668-1038.75
			c0-1064.516-2.324-1112.68-57.529-1232.387c-26.982-58.691-42.227-77.471-231.211-294.609
			C5312.46-79.297,4547.216-1020.615,4521.396-1069.941c-16.465-30.537-17.627-82.129-15.244-369.717l3.555-334.512l31.699-31.709
			c48.105-48.096,117.383-45.771,163.164,5.879l34.023,37.578v296.943v295.781l329.805,404.961
			c396.699,488.252,616.162,751.162,760.596,914.326c124.414,140.82,176.074,238.252,208.936,388.496
			c19.951,92.715,21.113,179.561,21.113,1161.943v1062.188l-34.023,72.764C5941.416,3016.929,5726.669,3120.234,5538.847,3067.422z"
			/>
	</g>
</g>
</svg>
