<?xml version="1.0" encoding="utf-8"?>
<!-- Generator: Adobe Illustrator 16.0.0, SVG Export Plug-In . SVG Version: 6.00 Build 0)  -->
<!DOCTYPE svg PUBLIC "-//W3C//DTD SVG 1.1//EN" "http://www.w3.org/Graphics/SVG/1.1/DTD/svg11.dtd">
<svg version="1.1" xmlns="http://www.w3.org/2000/svg" xmlns:xlink="http://www.w3.org/1999/xlink" x="0px" y="0px" width="1016px"
	 height="155.993px" viewBox="0 0 1016 155.993" enable-background="new 0 0 1016 155.993" xml:space="preserve">
<g id="Layer_3" display="none">
</g>
<g id="Layer_1">
	<polygon fill="#231F20" points="557.939,123.415 563.6,114.278 513.659,114.278 545.648,62.639 521.18,62.639 483.531,123.415 	"/>
	<polygon fill="#231F20" points="634.752,62.639 597.104,123.415 572.59,123.415 610.238,62.639 	"/>
	<path fill="none" stroke="#231F20" stroke-miterlimit="10" d="M951.623,69.451"/>
	<path fill="#231F20" d="M951.623,69.451c0,0-34.105-23.95-69.421,1.255c0,0-18.229,16.666-16.188,30.119s13.386,22.59,38.29,22.59
		s93.08,0,93.08,0l3.735-9.137c0,0-74.89,0-87.788,0s-25.216-9.771-24.281-18.367c1.557-14.318,18.055-29.884,33.932-29.261
		s21.48,10.756,21.48,10.756L951.623,69.451z"/>
	<g>
	</g>
	<path fill="#231F20" d="M781.982,114.278H768.65c0,0-5.204-0.244-1.249-6.849l22.749-36.723h40.818l-32.651,52.708h24.26
		l37.648-60.776h-65.078l9.54-16.847h-9.541c0,0-7.893,10.896-20.967,10.896l-3.919,5.951h-16.254l-4.997,8.067h16.254
		l-25.189,40.664c0,0-4.049,12.045,10.135,12.045s26.113,0,26.113,0S781.981,114.278,781.982,114.278z"/>
	<line fill="none" stroke="#231F20" stroke-miterlimit="10" x1="754.007" y1="62.639" x2="770.261" y2="62.639"/>
	<path fill-rule="evenodd" clip-rule="evenodd" fill="#231F20" d="M733.908,66.947c-2.069,3.104-3.887,5.832-5.592,8.39
		c-15.502-7.773-31.259-12.261-48.396-10.018c-1.625,0.213-3.267,0.693-4.772,1.347c-3.62,1.57-6.267,4.165-5.87,8.368
		c0.418,4.42,4.322,4.575,7.553,5.024c8.893,1.237,17.813,2.276,26.721,3.413c1.316,0.169,2.634,0.379,3.925,0.681
		c6.537,1.527,11.984,4.799,13.854,11.514c1.896,6.813-2.017,11.812-6.862,16.045c-8.756,7.646-19.477,10.655-30.604,12.18
		c-19.03,2.606-37.41-0.008-55.312-7.869c1.762-3.854,3.405-7.45,5.063-11.076c14.013,9.551,29.273,13.898,45.852,12.282
		c4.535-0.441,9.111-2.84,13.114-5.259c1.701-1.029,3.183-4.825,2.579-6.635c-0.695-2.085-3.61-4.367-5.902-4.814
		c-8.802-1.718-17.76-2.62-26.617-4.079c-2.909-0.479-5.834-1.417-8.507-2.669c-8.62-4.04-10.598-10.982-4.919-18.738
		c6.217-8.492,14.312-14.021,25.335-14.939c18.061-1.507,35.889-1.017,53.383,4.206c1.271,0.38,2.531,0.812,3.764,1.305
		C732.298,65.844,732.822,66.277,733.908,66.947z"/>
	<path fill="#231F20" d="M460.62,62.639h-22.117l-55.471,51.639h-58.535l11.378-18.367h26.547l5.333-8.609h-26.547l10.28-16.595
		l45.371,0l4.997-8.067h-68.119l-37.648,60.776H386.5c0,0,17.192-15.985,17.192-15.985h44.253c0,0,3.399,15.985,3.399,15.985h22.117
		L460.62,62.639z M413.197,98.593l0.038-0.036l27.407-25.482l5.438,25.514L413.197,98.593z"/>
	<path fill="#231F20" d="M225.167,100.825h50.216c0,0,28.196-2.591,28.196-23.919c0-14.958-13.605-14.267-13.605-14.267H19.632
		l-4.998,8.067h155.701l-32.651,52.708h23.361l13.993-22.59h26.603l80.644,39.998h23.526L225.167,100.825z M180.59,91.864
		l13.106-21.158h74.589c0,0,9.267,0.603,9.267,8.599c0,11.633-17.942,12.559-17.942,12.559H180.59z"/>
	<path fill="#231F20" d="M962.452,56.802c-12.271,0-22.254-9.983-22.254-22.253s9.983-22.253,22.254-22.253
		s22.253,9.983,22.253,22.253S974.723,56.802,962.452,56.802z M962.452,15.295c-10.616,0-19.254,8.637-19.254,19.253
		s8.638,19.253,19.254,19.253s19.253-8.637,19.253-19.253S973.068,15.295,962.452,15.295z"/>
	<path fill="#231F20" d="M970.188,50.689l-8.389-14.641l2.14-0.347c0.265-0.044,6.596-1.163,6.596-6.285
		c0-6.171-4.457-6.881-5.023-6.947h-8.598v27.473h-3V19.47l11.798,0.005c2.706,0.229,7.823,2.601,7.823,9.941
		c0,4.981-3.916,7.626-7.08,8.722l6.337,11.059L970.188,50.689z"/>
</g>
<g id="Layer_2" display="none">
	<g id="vkCUQU.tif" display="inline">
		
			<image overflow="visible" width="1016" height="1016" id="Layer_0_1_" xlink:href="BD38225E1F518CDB.png"  transform="matrix(1 0 0 1 0 -431.0942)">
		</image>
	</g>
</g>
</svg>
